<?xml version="1.0" ?>
<svg baseProfile="tiny" height="759" stroke-linecap="round" stroke-linejoin="round" version="1.2" viewBox="0 0 800 759" width="800" xmlns="http://www.w3.org/2000/svg">
	

	<g id="old_reg_fxx">
		

		<path d="M 579.91 368.73 571.8 379.53 547.9 381.85 538.55 367.72 545.23 352.39 534.85 329.03 546.86 298.75 539.27 275.86 555.99 268.96 555.64 258.35 565.71 249.47 579.91 242.55 597.49 251.41 603.84 246.45 617.32 255.46 626.7 261.32 633.8 280.03 630.8 292.8 609.33 320.94 598.34 327.32 599.21 340.53 581.97 355.95 579.91 368.73 Z" data-anchor-x="584.325" data-anchor-y="312.20000000000005" data-fill-id="43" data-name="Franche-Comté" id="43"/>
		

		<path d="M 413.71 341.97 416.07 324.19 405.14 298.08 408.63 278.23 418.8 248.71 408.58 233.45 414.58 217.85 433.88 215.4 451.24 232.77 460.04 250.96 489.16 249.1 507.2 244.71 516.24 255.69 517.93 269.85 539.27 275.86 546.86 298.75 534.85 329.03 545.23 352.39 538.55 367.72 518.12 362.69 509.98 389.88 489.2 380.83 481.39 390.26 466.41 391.19 461.4 382.84 466.63 367.74 452.59 359.97 444.56 347.47 423.72 350.84 413.71 341.97 Z" data-anchor-x="476.0" data-anchor-y="303.295" data-fill-id="26" data-name="Bourgogne" id="26"/>
		

		<path d="M 271.99 130.54 260.24 123.55 268.36 107.79 287.29 97.66 310.38 93.03 329.07 81.62 344.16 93.58 348.38 142.78 344.59 148.08 333.61 171 323.79 185.1 297.12 191.65 293.1 182.55 275.23 171.91 275.98 143.85 271.99 130.54 Z" data-anchor-x="304.31" data-anchor-y="136.635" data-fill-id="23" data-name="Haute-Normandie" id="23"/>
		

		<path d="M 271.99 130.54 275.98 143.85 275.23 171.91 293.1 182.55 297.12 191.65 304.79 203.56 293.53 220.39 295.16 229.36 273.52 217.64 256.74 213.21 244.99 200.46 213.66 207.06 197.45 200.54 175.27 200.86 171.62 189.75 172.67 146.66 162.26 128.44 161.44 107.72 184.29 104.81 195.39 127.66 244.44 141.27 271.99 130.54 Z" data-anchor-x="233.115" data-anchor-y="167.085" data-fill-id="25" data-name="Basse-Normandie" id="25"/>
		

		<path d="M 342.86 59.05 338.67 54.8 340.5 18.03 348.05 12.54 389.05 1 391.79 19.73 402.53 30.62 419.63 25.43 426.49 45.67 435.98 45.15 445.43 57.98 464.75 60.03 474.23 66.73 470.43 88.9 448.55 81.97 421.29 86.65 390.29 78.57 349.85 58.39 342.86 59.05 Z" data-anchor-x="406.45000000000005" data-anchor-y="44.95" data-fill-id="31" data-name="Nord-Pas-de-Calais" id="31"/>
		

		<path d="M 329.07 81.62 342.86 59.05 349.85 58.39 390.29 78.57 421.29 86.65 448.55 81.97 470.43 88.9 475.17 90.5 476.3 106.43 459.87 134.53 445.55 141.91 448.62 152.5 437.37 178.74 420.92 165.93 420.57 159.14 398.14 162.24 364.15 150.13 344.59 148.08 348.38 142.78 344.16 93.58 329.07 81.62 Z" data-anchor-x="402.685" data-anchor-y="118.565" data-fill-id="22" data-name="Picardie" id="22"/>
		

		<path d="M 433.88 215.4 438.48 198.35 437.37 178.74 448.62 152.5 445.55 141.91 459.87 134.53 476.3 106.43 475.17 90.5 498.45 87.08 508.28 100.74 535.47 116.19 521.57 132.1 512.9 151.13 518.07 169.12 510.95 180.39 517.46 194.77 538.62 207.16 555.65 226.5 555.29 237.84 565.71 249.47 555.64 258.35 555.99 268.96 539.27 275.86 517.93 269.85 516.24 255.69 507.2 244.71 489.16 249.1 460.04 250.96 451.24 232.77 433.88 215.4 Z" data-anchor-x="499.795" data-anchor-y="181.47" data-fill-id="21" data-name="Champagne-Ardenne" id="21"/>
		

		<path d="M 633.8 280.03 626.7 261.32 617.32 255.46 633.83 216.56 629.23 201.02 638.07 179.36 619.33 169.44 626.23 157.99 649.17 165.57 653.67 155.67 669.25 154.43 683.38 161.61 666.33 187.73 662.82 212.25 654.95 229.82 658.01 241.41 653.47 263.08 657.84 272.8 648.75 284.58 633.8 280.03 Z" data-anchor-x="650.35" data-anchor-y="219.505" data-fill-id="42" data-name="Alsace" id="42"/>
		

		<path d="M 535.47 116.19 540.21 125.07 556.91 120.82 566.68 128.14 580.33 123.09 595.92 129.31 606.54 149.46 623.17 152.7 642.93 146.22 653.67 155.67 649.17 165.57 626.23 157.99 619.33 169.44 638.07 179.36 629.23 201.02 633.83 216.56 617.32 255.46 603.84 246.45 597.49 251.41 579.91 242.55 565.71 249.47 555.29 237.84 555.65 226.5 538.62 207.16 517.46 194.77 510.95 180.39 518.07 169.12 512.9 151.13 521.57 132.1 535.47 116.19 Z" data-anchor-x="582.31" data-anchor-y="185.825" data-fill-id="41" data-name="Lorraine" id="41"/>
		

		<path d="M 218.48 650.79 204.84 654.67 155.52 625.47 136.5 604.76 146.3 600.44 155.83 584.71 170.76 518.29 177.87 497.03 173.97 488.61 180.2 440.87 185.48 437.96 204.67 453.43 220.1 457.94 221.67 467.11 234.94 473.69 259.25 457.41 261.81 445.17 272.52 438.89 280.36 425.64 290.14 436.92 302.67 435.32 318.27 452.96 312.73 461.59 324.71 481.87 324.01 493.31 299.29 519.62 301.03 533.43 290.23 551.89 257.62 561.47 229.8 564.81 228.29 580.7 239.06 606.12 237.06 618.09 226.47 630.32 218.48 650.79 Z" data-anchor-x="230.605" data-anchor-y="540.155" data-fill-id="72" data-name="Aquitaine" id="72"/>
		

		<path d="M 185.22 374.46 206 375.99 214.96 358.22 204.09 325.96 219.18 316.46 252.68 309.76 265.51 325.29 287.24 331.57 310.49 363.65 311.98 373.4 290.7 386.57 297.4 402.65 280.36 425.64 272.52 438.89 261.81 445.17 259.25 457.41 234.94 473.69 221.67 467.11 220.1 457.94 204.67 453.43 201.58 443.79 178.25 422.8 188.22 398.36 179.43 385.61 185.22 374.46 Z" data-anchor-x="245.115" data-anchor-y="391.725" data-fill-id="54" data-name="Poitou-Charentes" id="54"/>
		

		<path d="M 280.36 425.64 297.4 402.65 290.7 386.57 311.98 373.4 324.92 376.54 347.26 370.42 372.55 371.48 387.72 391.18 389.55 405.77 378.05 418.54 385.75 430.12 383.35 450.96 366.88 466.52 359.23 485.81 345.72 489.5 324.71 481.87 312.73 461.59 318.27 452.96 302.67 435.32 290.14 436.92 280.36 425.64 Z" data-anchor-x="334.95500000000004" data-anchor-y="429.96000000000004" data-fill-id="74" data-name="Limousin" id="74"/>
		

		<path d="M 410.92 512.43 417.91 493.23 430.98 487.72 438.81 498.82 453.74 496.85 460.7 504.3 463.24 516.26 483.69 541.98 497.52 535.76 505.93 541.13 517.44 563.4 503.66 587.42 483.06 605.82 464.33 601.58 441.59 621.11 431.82 621.45 415.78 641.17 414.36 684.72 381.5 695.22 368.3 687.28 356.48 693.54 340.73 676.2 360.39 668.85 352.81 652.75 350.89 633.01 335.93 620.57 345.98 607.2 358.31 611.18 369.14 606.2 386.47 609.4 389.79 597.88 415.46 587.9 437.76 561.83 432.37 547.81 419.09 540.99 419.67 527.48 410.92 512.43 Z" data-anchor-x="426.68500000000006" data-anchor-y="591.47" data-fill-id="91" data-name="Languedoc-Roussillon" id="91"/>
		

		<path d="M 324.71 481.87 345.72 489.5 359.23 485.81 366.33 513.66 379.98 512.78 397.22 488.9 410.92 512.43 419.67 527.48 419.09 540.99 432.37 547.81 437.76 561.83 415.46 587.9 389.79 597.88 386.47 609.4 369.14 606.2 358.31 611.18 345.98 607.2 335.93 620.57 350.89 633.01 352.81 652.75 360.39 668.85 340.73 676.2 313.92 663.77 304.35 664.58 278.16 651.96 276.28 664.01 246.71 660.86 235.66 664.59 218.48 650.79 226.47 630.32 237.06 618.09 239.06 606.12 228.29 580.7 229.8 564.81 257.62 561.47 290.23 551.89 301.03 533.43 299.29 519.62 324.01 493.31 324.71 481.87 Z" data-anchor-x="328.12" data-anchor-y="579.0350000000001" data-fill-id="73" data-name="Midi-Pyrénées" id="73"/>
		

		<path d="M 372.55 371.48 389.94 354.42 413.71 341.97 423.72 350.84 444.56 347.47 452.59 359.97 466.63 367.74 461.4 382.84 457.72 404.79 450.77 422 465.11 439.87 469.25 456.71 485.05 454.25 495.03 464.74 477.14 493.83 460.7 504.3 453.74 496.85 438.81 498.82 430.98 487.72 417.91 493.23 410.92 512.43 397.22 488.9 379.98 512.78 366.33 513.66 359.23 485.81 366.88 466.52 383.35 450.96 385.75 430.12 378.05 418.54 389.55 405.77 387.72 391.18 372.55 371.48 Z" data-anchor-x="427.13" data-anchor-y="427.815" data-fill-id="83" data-name="Auvergne" id="83"/>
		

		<path d="M 461.4 382.84 466.41 391.19 481.39 390.26 489.2 380.83 509.98 389.88 518.12 362.69 538.55 367.72 547.9 381.85 571.8 379.53 579.91 368.73 593.23 383.29 598.03 374.03 616.03 367.87 624.27 377.36 622.12 389.63 633.91 400.59 624.56 423.39 634.85 438.63 645.5 445.77 643.52 457.92 627.93 468.91 615.67 470.91 598.53 480.03 572.97 501.12 549.37 527.75 561.73 535.02 547.98 545.56 529.28 537.59 515.39 543.94 505.93 541.13 497.52 535.76 483.69 541.98 463.24 516.26 460.7 504.3 477.14 493.83 495.03 464.74 485.05 454.25 469.25 456.71 465.11 439.87 450.77 422 457.72 404.79 461.4 382.84 Z" data-anchor-x="548.135" data-anchor-y="454.125" data-fill-id="82" data-name="Rhône-Alpes" id="82"/>
		

		<path d="M 755.7 717.02 741.34 698.23 744.55 669.44 767.89 651.83 782.84 648.8 795.11 663.08 799 697.97 791.93 710.38 792.29 734.14 784.13 757.85 757.27 744.79 752.08 732.02 755.7 717.02 Z" data-anchor-x="770.1700000000001" data-anchor-y="703.325" data-fill-id="94" data-name="Corse" id="94"/>
		

		<path d="M 333.61 171 344.59 148.08 364.15 150.13 398.14 162.24 420.57 159.14 420.92 165.93 437.37 178.74 438.48 198.35 433.88 215.4 414.58 217.85 408.58 233.45 387.44 235.19 381.3 222.56 359.26 223.49 356.15 211.05 338.5 193.1 333.61 171 Z" data-anchor-x="386.045" data-anchor-y="191.635" data-fill-id="11" data-name="Île-de-France" id="11"/>
		

		<path d="M 118.58 280.04 137.85 274.74 140.21 265.31 159.76 262.73 197.96 241.37 194.85 220.21 197.45 200.54 213.66 207.06 244.99 200.46 256.74 213.21 273.52 217.64 295.16 229.36 293.14 257.46 271.32 278.25 263.49 274.78 252.68 309.76 219.18 316.46 204.09 325.96 214.96 358.22 206 375.99 185.22 374.46 180.76 377.7 148.65 357.85 146.83 348.59 132.37 331.06 142.13 314.99 125.87 297.36 118.58 280.04 Z" data-anchor-x="206.87" data-anchor-y="289.08" data-fill-id="52" data-name="Pays de la Loire" id="52"/>
		

		<path d="M 171.62 189.75 175.27 200.86 197.45 200.54 194.85 220.21 197.96 241.37 159.76 262.73 140.21 265.31 137.85 274.74 118.58 280.04 102.16 265.13 83.66 267.82 79.71 260.04 43.83 243.33 19.07 244.29 15.61 229.14 26.36 218.09 1 193.1 5.39 182.36 26.15 174.8 53.57 174.41 66.43 178.85 75.17 169.44 92.12 165.25 112.79 193.51 132.97 183 150.99 183.75 171.62 189.75 Z" data-anchor-x="99.48" data-anchor-y="222.645" data-fill-id="53" data-name="Bretagne" id="53"/>
		

		<path d="M 505.93 541.13 515.39 543.94 529.28 537.59 547.98 545.56 561.73 535.02 549.37 527.75 572.97 501.12 598.53 480.03 615.67 470.91 623.15 486.59 637.88 491.27 633.49 528.4 640.38 539.01 679.19 555.77 672.04 572.71 651.89 584.4 638.35 601.75 628.2 605.01 623.05 624.34 593.66 633.01 575.48 631.3 548.78 615.3 519.4 615.24 501.84 606.6 483.06 605.82 503.66 587.42 517.44 563.4 505.93 541.13 Z" data-anchor-x="581.125" data-anchor-y="551.96" data-fill-id="93" data-name="Provence-Alpes-Côte d'Azur" id="93"/>
		

		<path d="M 295.16 229.36 293.53 220.39 304.79 203.56 297.12 191.65 323.79 185.1 333.61 171 338.5 193.1 356.15 211.05 359.26 223.49 381.3 222.56 387.44 235.19 408.58 233.45 418.8 248.71 408.63 278.23 405.14 298.08 416.07 324.19 413.71 341.97 389.94 354.42 372.55 371.48 347.26 370.42 324.92 376.54 311.98 373.4 310.49 363.65 287.24 331.57 265.51 325.29 252.68 309.76 263.49 274.78 271.32 278.25 293.14 257.46 295.16 229.36 Z" data-anchor-x="335.74" data-anchor-y="273.77" data-fill-id="24" data-name="Centre" id="24"/>
		

	</g>
	

</svg>
